<svg xmlns="http://www.w3.org/2000/svg" viewBox="0 0 64 64">
  <rect width="64" height="64" rx="18" fill="#fbfaf7"/>
  <circle cx="32" cy="32" r="25" fill="none" stroke="#d4c8ae" stroke-width="1"/>
  <path d="M25 16h9.8c5.7 0 9.5 3.1 9.5 7.8 0 3.1-1.7 5.5-4.6 6.7 3.8 1 6.1 3.9 6.1 7.8 0 5.8-4.6 9.7-11.6 9.7H25V16Zm8.8 12.7c3.2 0 5.2-1.6 5.2-4.2 0-2.5-2-4-5.1-4h-3.3v8.2h3.2Zm.6 14.8c3.7 0 5.9-1.9 5.9-5.1 0-3.1-2.2-5-5.9-5h-3.8v10.1h3.8Z" fill="#171717"/>
  <path d="M20 52h24" stroke="#171717" stroke-width="1.2" stroke-linecap="round" opacity=".55"/>
</svg>
